<svg width="130" height="70" viewBox="0 0 130 70" fill="none" xmlns="http://www.w3.org/2000/svg">
<path d="M10.509 13.7841C10.2539 12.8899 10.9254 12 11.8553 12H21.396C22.0216 12 22.5713 12.4151 22.7426 13.0168L30.1398 39.0086C30.4643 40.1487 31.9703 40.3948 32.6408 39.4173L51.031 12.6081C51.2921 12.2275 51.7239 12 52.1855 12H62.7857C63.8997 12 64.5674 13.2379 63.9556 14.1689L39.5814 51.2567C39.543 51.3152 39.5007 51.3704 39.4535 51.4221C37.1648 53.9283 33.1479 56.222 28.9639 56.222C24.9946 56.222 22.727 54.1422 21.2925 51.4716C21.2472 51.3874 21.2119 51.2983 21.1856 51.2064L10.509 13.7841Z" fill="black"/>
<path d="M109.219 30.942C108.173 31.8358 108.142 34.534 108.987 35.6196C110.054 36.9886 110.694 38.8279 110.694 41.0695C110.694 48.158 107.117 55.5066 90.5342 55.5066H52.9141C51.7953 55.5066 51.1285 54.2592 51.75 53.3289L67.5618 29.6608C67.8215 29.2719 68.2583 29.0385 68.7259 29.0385H95.4766C97.6877 29.0385 99.7688 28.1931 99.7688 25.5918C99.7688 23.9009 98.143 23.3156 96.4521 23.3156H73.6936C72.551 23.3156 71.8896 22.0208 72.5593 21.0951L78.7194 12.5794C78.9826 12.2155 79.4045 12 79.8537 12H97.9479C107.313 12 113.035 15.5117 113.035 22.2101C113.035 26.2258 111.394 29.0845 109.219 30.942ZM93.5907 38.3381H75.5573C75.0921 38.3381 74.6574 38.5691 74.3971 38.9546L72.2475 42.1376C71.6196 43.0673 72.2857 44.3211 73.4077 44.3211H92.5502C95.8668 44.3211 97.3626 43.0204 97.3626 40.8093C97.3626 39.1835 96.192 38.3381 93.5907 38.3381Z" fill="black"/>
<path d="M13.509 16.0068C13.2539 15.1125 13.9254 14.2227 14.8553 14.2227H24.396C25.0216 14.2227 25.5713 14.6377 25.7426 15.2394L33.1398 41.2313C33.4643 42.3714 34.9703 42.6175 35.6408 41.64L54.031 14.8307C54.2921 14.4501 54.7239 14.2227 55.1855 14.2227H65.7857C66.8997 14.2227 67.5674 15.4606 66.9556 16.3916L42.5814 53.4793C42.543 53.5379 42.5007 53.593 42.4535 53.6447C40.1648 56.151 36.1479 58.4447 31.9639 58.4447C27.9946 58.4447 25.727 56.3648 24.2925 53.6943C24.2472 53.6101 24.2119 53.5209 24.1856 53.429L13.509 16.0068Z" stroke="black"/>
<path d="M112.219 33.1647C111.173 34.0585 111.142 36.7567 111.987 37.8423C113.054 39.2113 113.694 41.0506 113.694 43.2921C113.694 50.3806 110.117 57.7293 93.5342 57.7293H55.9141C54.7953 57.7293 54.1285 56.4819 54.75 55.5516L70.5618 31.8834C70.8215 31.4946 71.2583 31.2611 71.7259 31.2611H98.4766C100.688 31.2611 102.769 30.4157 102.769 27.8144C102.769 26.1236 101.143 25.5383 99.4521 25.5383H76.6936C75.551 25.5383 74.8896 24.2435 75.5593 23.3177L81.7194 14.8021C81.9826 14.4382 82.4045 14.2227 82.8537 14.2227H100.948C110.313 14.2227 116.035 17.7344 116.035 24.4327C116.035 28.4484 114.394 31.3071 112.219 33.1647ZM96.5907 40.5608H78.5573C78.0921 40.5608 77.6574 40.7918 77.3971 41.1772L75.2475 44.3602C74.6196 45.29 75.2857 46.5437 76.4077 46.5437H95.5502C98.8668 46.5437 100.363 45.2431 100.363 43.032C100.363 41.4062 99.192 40.5608 96.5907 40.5608Z" stroke="black"/>
</svg>
